<svg width="57" height="12" viewBox="0 0 57 12" fill="none" xmlns="http://www.w3.org/2000/svg">
<path d="M56.5188 2.8299L56.229 4.53445H51.9165L52.2063 2.8299H56.5188ZM53.2972 1.26172H55.6495L54.6523 7.27024C54.6381 7.36115 54.6409 7.43786 54.6608 7.50036C54.6807 7.56001 54.7205 7.60547 54.7801 7.63672C54.8426 7.66513 54.925 7.67933 55.0273 7.67933C55.0955 7.67933 55.1793 7.67081 55.2787 7.65376C55.3782 7.63388 55.4534 7.61967 55.5046 7.61115L55.5728 9.26456C55.4534 9.29865 55.2929 9.337 55.0912 9.37962C54.8924 9.42507 54.6608 9.4549 54.3966 9.4691C53.8455 9.49467 53.3966 9.43644 53.05 9.29439C52.7063 9.15234 52.4676 8.93075 52.3341 8.62962C52.2034 8.32564 52.1807 7.94638 52.2659 7.49183L53.2972 1.26172Z" fill="black"/>
<path d="M51.7686 4.96005H49.655C49.6663 4.82369 49.6422 4.70721 49.5825 4.61062C49.5229 4.51403 49.4391 4.44016 49.3311 4.38903C49.226 4.33789 49.1067 4.31232 48.9732 4.31232C48.7402 4.31232 48.5286 4.36488 48.3382 4.46999C48.1479 4.57227 48.0413 4.70721 48.0186 4.87482C48.0044 4.94016 48.0257 5.00124 48.0825 5.05806C48.1394 5.11488 48.2885 5.16744 48.53 5.21573L49.8254 5.45437C50.4732 5.57369 50.9448 5.79102 51.2402 6.10636C51.5385 6.41886 51.6465 6.83221 51.5641 7.34641C51.4874 7.79244 51.2913 8.17596 50.976 8.49698C50.6607 8.818 50.2601 9.06516 49.7743 9.23846C49.2913 9.40891 48.7573 9.49414 48.172 9.49414C47.1408 9.49414 46.368 9.28817 45.8538 8.87624C45.3425 8.46431 45.1095 7.92596 45.155 7.26119H47.4391C47.4448 7.47425 47.5158 7.63477 47.6521 7.74272C47.7913 7.84783 47.976 7.90323 48.2061 7.90891C48.4561 7.91744 48.6749 7.86772 48.8624 7.75977C49.0499 7.64897 49.155 7.51119 49.1777 7.34641C49.1862 7.25266 49.145 7.18164 49.0541 7.13335C48.9661 7.08505 48.797 7.03675 48.547 6.98846L47.422 6.78391C46.7743 6.66744 46.3027 6.43448 46.0073 6.08505C45.7118 5.73278 45.6095 5.28391 45.7004 4.73846C45.7743 4.3038 45.9504 3.93874 46.2288 3.64329C46.5101 3.34783 46.8794 3.12482 47.3368 2.97425C47.7942 2.82085 48.3226 2.74414 48.922 2.74414C49.9021 2.74414 50.6436 2.94158 51.1465 3.33647C51.6521 3.72852 51.8595 4.26971 51.7686 4.96005Z" fill="black"/>
<path d="M41.4883 9.49414C40.7894 9.49414 40.2099 9.36062 39.7497 9.09357C39.2894 8.82369 38.9656 8.43732 38.7781 7.93448C38.5906 7.4288 38.5565 6.82369 38.6758 6.11914C38.7894 5.443 39.0238 4.8521 39.3789 4.34641C39.7369 3.84073 40.1872 3.44727 40.7298 3.16602C41.2752 2.88477 41.886 2.74414 42.5622 2.74414C43.0565 2.74414 43.4897 2.82085 43.8619 2.97425C44.2369 3.12766 44.5423 3.35067 44.7781 3.64329C45.0139 3.9359 45.173 4.28959 45.2553 4.70437C45.3406 5.1163 45.3406 5.58221 45.2553 6.1021L45.1701 6.64755H39.3235L39.5281 5.3521H43.2099C43.2383 5.1646 43.2198 4.99982 43.1545 4.85778C43.092 4.71289 42.9911 4.60068 42.8519 4.52113C42.7156 4.43874 42.5508 4.39755 42.3576 4.39755C42.1644 4.39755 41.9826 4.43874 41.8122 4.52113C41.6446 4.60352 41.5011 4.71857 41.3818 4.8663C41.2653 5.01403 41.1872 5.18732 41.1474 5.38619L40.8917 6.74982C40.8576 6.96005 40.8704 7.14755 40.9301 7.31232C40.9897 7.4771 41.0934 7.60636 41.2411 7.70011C41.3889 7.79386 41.5792 7.84073 41.8122 7.84073C41.9713 7.84073 42.1218 7.81943 42.2639 7.77681C42.4088 7.73136 42.5366 7.66602 42.6474 7.58079C42.761 7.49272 42.8519 7.38619 42.9201 7.26119H45.0678C44.9144 7.71573 44.6715 8.11062 44.3392 8.44585C44.0096 8.77823 43.6034 9.03675 43.1204 9.22141C42.6403 9.40323 42.0963 9.49414 41.4883 9.49414Z" fill="black"/>
<path d="M35.8976 6.5119L36.5112 2.83008H38.8635L37.7726 9.37553H35.5396L35.7442 8.13122H35.676C35.4743 8.54883 35.1732 8.87553 34.7726 9.11133C34.3749 9.34428 33.9317 9.46076 33.443 9.46076C32.9857 9.46076 32.6036 9.35565 32.2967 9.14542C31.9899 8.93519 31.7726 8.64542 31.6448 8.2761C31.5169 7.90678 31.4913 7.48349 31.568 7.00622L32.2669 2.83008H34.6192L34.0055 6.5119C33.9573 6.83576 33.9984 7.09002 34.1291 7.27468C34.2627 7.45934 34.4771 7.55167 34.7726 7.55167C34.9686 7.55167 35.1448 7.51048 35.301 7.42809C35.4601 7.34286 35.5908 7.22354 35.6931 7.07014C35.7982 6.91389 35.8663 6.72781 35.8976 6.5119Z" fill="black"/>
<path d="M27.8097 11.8294L28.3893 8.30096H28.3552C28.2302 8.52255 28.0682 8.72141 27.8694 8.89755C27.6734 9.07085 27.4461 9.20863 27.1876 9.3109C26.9319 9.41033 26.6506 9.46005 26.3438 9.46005C25.8779 9.46005 25.4702 9.33789 25.1208 9.09357C24.7714 8.84925 24.52 8.47852 24.3665 7.98136C24.2131 7.4842 24.1989 6.85778 24.3239 6.1021C24.4546 5.31232 24.6833 4.67028 25.01 4.17596C25.3396 3.68164 25.7174 3.31942 26.1435 3.08931C26.5725 2.8592 27.0029 2.74414 27.4347 2.74414C27.7586 2.74414 28.0327 2.80096 28.2572 2.91459C28.4844 3.02539 28.6648 3.17454 28.7984 3.36204C28.9347 3.5467 29.0256 3.74982 29.0711 3.97141H29.1222L29.3182 2.82937H31.6535L30.162 11.8294H27.8097ZM27.5114 7.65323C27.7273 7.65323 27.9234 7.59073 28.0995 7.46573C28.2756 7.33789 28.4248 7.15891 28.5469 6.9288C28.6691 6.69585 28.7557 6.42028 28.8069 6.1021C28.8609 5.77823 28.8651 5.50124 28.8197 5.27113C28.7742 5.03818 28.6833 4.86062 28.5469 4.73846C28.4134 4.61346 28.2387 4.55096 28.0228 4.55096C27.8069 4.55096 27.6123 4.61346 27.439 4.73846C27.2685 4.86062 27.1236 5.03818 27.0043 5.27113C26.885 5.50124 26.7984 5.77823 26.7444 6.1021C26.6904 6.42596 26.6847 6.70437 26.7273 6.93732C26.77 7.16744 26.8566 7.34499 26.9873 7.46999C27.1208 7.59215 27.2955 7.65323 27.5114 7.65323Z" fill="black"/>
<path d="M20.4016 9.49414C19.7028 9.49414 19.1232 9.36062 18.663 9.09357C18.2028 8.82369 17.8789 8.43732 17.6914 7.93448C17.5039 7.4288 17.4698 6.82369 17.5891 6.11914C17.7028 5.443 17.9371 4.8521 18.2923 4.34641C18.6502 3.84073 19.1005 3.44727 19.6431 3.16602C20.1886 2.88477 20.7994 2.74414 21.4755 2.74414C21.9698 2.74414 22.4031 2.82085 22.7752 2.97425C23.1502 3.12766 23.4556 3.35067 23.6914 3.64329C23.9272 3.9359 24.0863 4.28959 24.1687 4.70437C24.2539 5.1163 24.2539 5.58221 24.1687 6.1021L24.0835 6.64755H18.2369L18.4414 5.3521H22.1232C22.1516 5.1646 22.1332 4.99982 22.0678 4.85778C22.0053 4.71289 21.9045 4.60068 21.7653 4.52113C21.6289 4.43874 21.4641 4.39755 21.271 4.39755C21.0778 4.39755 20.896 4.43874 20.7255 4.52113C20.5579 4.60352 20.4144 4.71857 20.2951 4.8663C20.1786 5.01403 20.1005 5.18732 20.0607 5.38619L19.805 6.74982C19.771 6.96005 19.7837 7.14755 19.8434 7.31232C19.9031 7.4771 20.0067 7.60636 20.1545 7.70011C20.3022 7.79386 20.4925 7.84073 20.7255 7.84073C20.8846 7.84073 21.0352 7.81943 21.1772 7.77681C21.3221 7.73136 21.4499 7.66602 21.5607 7.58079C21.6744 7.49272 21.7653 7.38619 21.8335 7.26119H23.9812C23.8278 7.71573 23.5849 8.11062 23.2525 8.44585C22.9229 8.77823 22.5167 9.03675 22.0337 9.22141C21.5536 9.40323 21.0096 9.49414 20.4016 9.49414Z" fill="black"/>
<path d="M12.5086 9.46094C12.0427 9.46094 11.6336 9.33878 11.2814 9.09446C10.9319 8.85014 10.6805 8.4794 10.5271 7.98224C10.3765 7.48509 10.3637 6.85867 10.4887 6.10298C10.6194 5.31321 10.8481 4.67116 11.1748 4.17685C11.5044 3.68253 11.8822 3.32031 12.3083 3.0902C12.7373 2.86009 13.1677 2.74503 13.5995 2.74503C13.9234 2.74503 14.1975 2.80185 14.422 2.91548C14.6492 3.02628 14.8296 3.17543 14.9632 3.36293C15.0967 3.54759 15.1876 3.75071 15.2359 3.9723H15.27L15.824 0.648438H18.1762L16.7274 9.37571H14.3921L14.5711 8.30185H14.52C14.3921 8.52344 14.2288 8.7223 14.0299 8.89844C13.8339 9.07173 13.6081 9.20952 13.3524 9.31179C13.0967 9.41122 12.8154 9.46094 12.5086 9.46094ZM13.6762 7.65412C13.8921 7.65412 14.0882 7.59162 14.2643 7.46662C14.4404 7.33878 14.5896 7.1598 14.7117 6.92969C14.8339 6.69673 14.9206 6.42117 14.9717 6.10298C15.0257 5.77912 15.0299 5.50213 14.9845 5.27202C14.939 5.03906 14.8481 4.86151 14.7117 4.73935C14.5782 4.61435 14.4035 4.55185 14.1876 4.55185C13.9717 4.55185 13.7771 4.61435 13.6038 4.73935C13.4305 4.86151 13.2842 5.03906 13.1649 5.27202C13.0484 5.50213 12.9632 5.77912 12.9092 6.10298C12.8552 6.42685 12.8481 6.70526 12.8879 6.93821C12.9305 7.16832 13.0186 7.34588 13.1521 7.47088C13.2856 7.59304 13.4603 7.65412 13.6762 7.65412Z" fill="black"/>
<path d="M7.19714 9.375L8.28805 2.82955H10.6403L9.54942 9.375H7.19714ZM9.56646 2.14773C9.24828 2.14773 8.99118 2.04261 8.79515 1.83239C8.59913 1.61932 8.52669 1.36648 8.57783 1.07386C8.62896 0.775568 8.78521 0.522727 9.04658 0.315341C9.30794 0.105114 9.59771 0 9.91589 0C10.2369 0 10.4926 0.105114 10.6829 0.315341C10.8733 0.522727 10.9443 0.775568 10.896 1.07386C10.8506 1.36648 10.6971 1.61932 10.4358 1.83239C10.1773 2.04261 9.88748 2.14773 9.56646 2.14773Z" fill="black"/>
<path d="M5.46403 3.37589C5.4896 3.09464 5.42142 2.87447 5.25949 2.71538C5.09755 2.55344 4.82483 2.47248 4.4413 2.47248C4.19699 2.47248 3.99244 2.50089 3.82767 2.55771C3.66574 2.61452 3.53931 2.69265 3.44841 2.79208C3.36034 2.89151 3.30494 3.00657 3.28221 3.13725C3.25664 3.23952 3.25806 3.33327 3.28647 3.4185C3.31772 3.50089 3.37596 3.57617 3.46119 3.64435C3.54926 3.71254 3.66431 3.77362 3.80636 3.82759C3.95125 3.88157 4.12312 3.92987 4.32199 3.97248L5.0038 4.12589C5.46971 4.22816 5.86034 4.3631 6.17568 4.53072C6.49386 4.69549 6.74386 4.89151 6.92568 5.11879C7.1075 5.34606 7.22682 5.60032 7.28363 5.88157C7.34329 6.16282 7.34471 6.46964 7.28789 6.80202C7.1913 7.37589 6.96829 7.86168 6.61886 8.25941C6.26943 8.65714 5.81346 8.95969 5.25096 9.16708C4.68846 9.37447 4.03789 9.47816 3.29926 9.47816C2.54358 9.47816 1.90153 9.36594 1.37312 9.14151C0.847553 8.91424 0.466871 8.56765 0.231076 8.10174C-0.00187866 7.63299 -0.0586969 7.03498 0.0606213 6.30771H2.31062C2.27653 6.57475 2.30494 6.79918 2.39585 6.981C2.48676 7.16282 2.63306 7.3006 2.83477 7.39435C3.03647 7.4881 3.28789 7.53498 3.58903 7.53498C3.84471 7.53498 4.06346 7.50373 4.24528 7.44123C4.4271 7.37873 4.57056 7.29208 4.67568 7.18129C4.78079 7.07049 4.84471 6.94407 4.86744 6.80202C4.89017 6.67134 4.86744 6.55486 4.79926 6.45259C4.73108 6.35032 4.6075 6.25799 4.42852 6.1756C4.24954 6.09322 4.0038 6.01793 3.6913 5.94975L2.85608 5.76225C2.1146 5.5918 1.55494 5.31055 1.1771 4.9185C0.799258 4.52646 0.665735 3.98952 0.77653 3.30771C0.86744 2.75089 1.09613 2.26509 1.46261 1.85032C1.83193 1.43271 2.30068 1.10884 2.86886 0.878729C3.43988 0.645774 4.07199 0.529297 4.76517 0.529297C5.46971 0.529297 6.0592 0.647195 6.53363 0.88299C7.01091 1.11879 7.35323 1.44975 7.56062 1.87589C7.77085 2.30202 7.82767 2.80202 7.73108 3.37589H5.46403Z" fill="black"/>
</svg>
